# xmcd
#
# Track frame offsets:
#	150
#	14838
#	35472
#	58028
#	92406
#	119112
#	146433
#	184189
#	206339
#	224706
#	249425
#
# Disc length: 3631 seconds
#
# Revision: 0
# Processed by: cddbd v1.5.2PL0 Copyright (c) Steve Scherf et al.
# Submitted via: dBpowerAMP V4.0
#
DISCID=a60e2d0b
DTITLE=Dark Order - The Violence Continuum
DYEAR=2006
DGENRE=Thrash Metal
TTITLE0=Mission to the continuum
TTITLE1=War has begun
TTITLE2=The terran empire
TTITLE3=Slaves of a nameless god
TTITLE4=En sabah nur
TTITLE5=S.J.N.
TTITLE6=Condition: red
TTITLE7=Built of blood, not stone
TTITLE8=The Moby Dick trilogy: Overture
TTITLE9=The Moby Dick trilogy: Blood of the sea
TTITLE10=The Moby Dick trilogy: Once more unto the breach
EXTD=
EXTT0=
EXTT1=
EXTT2=
EXTT3=
EXTT4=
EXTT5=
EXTT6=
EXTT7=
EXTT8=
EXTT9=
EXTT10=
PLAYORDER=
